HIERARCHY
ROOT Hips
{
	OFFSET 0.000000 8.830580 0.000000
	CHANNELS 6 Xposition Yposition Zposition Zrotation Yrotation Xrotation 
	JOINT Spine
	{
		OFFSET 0.000000 0.010000 0.000000
		CHANNELS 3 Zrotation Yrotation Xrotation
		JOINT Spine1
		{
			OFFSET 0.000000 2.459130 0.000000
			CHANNELS 3 Zrotation Yrotation Xrotation
			JOINT Neck
			{
				OFFSET 0.000000 2.484630 0.000000
				CHANNELS 3 Zrotation Yrotation Xrotation
				JOINT Head_virtual
				{
					OFFSET 0.000000 0.000000 0.000000
					CHANNELS 3 Zrotation Yrotation Xrotation
					JOINT Head
					{
						OFFSET 0.000000 0.927525 0.000000
						CHANNELS 3 Zrotation Yrotation Xrotation
						End Site
						{
							OFFSET 0.000000 0.000000 0.000000
						}
					}
				}
				JOINT LeftUpArm_virtual
				{
					OFFSET 0.000000 0.000000 0.000000
					CHANNELS 3 Zrotation Yrotation Xrotation
					JOINT LeftUpArm
					{
						OFFSET 1.248820 0.000000 0.000000
						CHANNELS 3 Zrotation Yrotation Xrotation
						JOINT LeftForeArm
						{
							OFFSET 2.597580 0.000000 0.000000
							CHANNELS 3 Zrotation Yrotation Xrotation
							JOINT LeftHand
							{
								OFFSET 2.455420 0.000000 0.000000
								CHANNELS 3 Zrotation Yrotation Xrotation
								End Site
								{
									OFFSET 0.000000 0.000000 0.000000
								}
							}
						}
					}
				}
				JOINT RightUpArm_virtual
				{
					OFFSET -0.000000 -0.000000 -0.000000
					CHANNELS 3 Zrotation Yrotation Xrotation
					JOINT RightUpArm
					{
						OFFSET -1.248820 -0.000000 -0.000000
						CHANNELS 3 Zrotation Yrotation Xrotation
						JOINT RightForeArm
						{
							OFFSET -2.597580 -0.000000 -0.000000
							CHANNELS 3 Zrotation Yrotation Xrotation
							JOINT RightHand
							{
								OFFSET -2.455420 -0.000000 -0.000000
								CHANNELS 3 Zrotation Yrotation Xrotation
								End Site
								{
									OFFSET 0.000000 0.000000 0.000000
								}
							}
						}
					}
				}
			}
		}
	}
	JOINT LeftUpLeg
	{
		OFFSET 1.271939 0.000000 0.000000
		CHANNELS 3 Zrotation Yrotation Xrotation
		JOINT LeftLowLeg
		{
			OFFSET 0.000000 -4.342910 0.000000
			CHANNELS 3 Zrotation Yrotation Xrotation
			JOINT LeftFoot
			{
				OFFSET 0.000000 -4.487670 0.000000
				CHANNELS 3 Zrotation Yrotation Xrotation
				JOINT LeftToeBase
				{
					OFFSET 0.000000 0.000000 1.515070
					CHANNELS 3 Zrotation Yrotation Xrotation
					End Site
					{
						OFFSET 0.000000 0.000000 0.000000
					}
				}
			}
		}
	}
	JOINT RightUpLeg
	{
		OFFSET -1.271939 0.000000 0.000000
		CHANNELS 3 Zrotation Yrotation Xrotation
		JOINT RightLowLeg
		{
			OFFSET 0.000000 -4.342910 0.000000
			CHANNELS 3 Zrotation Yrotation Xrotation
			JOINT RightFoot
			{
				OFFSET 0.000000 -4.487670 0.000000
				CHANNELS 3 Zrotation Yrotation Xrotation
				JOINT RightToeBase
				{
					OFFSET 0.000000 0.000000 1.515070
					CHANNELS 3 Zrotation Yrotation Xrotation
					End Site
					{
						OFFSET 0.000000 0.000000 0.000000
					}
				}
			}
		}
	}
}
MOTION
Frames: 5
Frame Time: 0.041667
-15.355898 8.986925 35.593277 -176.957231 -21.099943 -166.429347 6.022083 -0.105099 -28.562753 -3.322120 0.548489 10.227574 0.000000 0.000000 0.000000 11.367226 2.975990 -9.077055 -14.470738 -12.449381 -75.715161 -28.185801 -4.966870 14.689000 -45.863602 -21.223801 -177.518005 0.000000 35.248901 0.000000 10.879100 10.615400 -135.947998 33.433399 -1.127520 10.653300 39.891102 19.832001 22.076996 0.000000 23.787201 0.000000 -1.778700 -2.040020 9.946840 3.473268 -23.605499 -11.648553 0.000000 0.000000 5.229560 0.350191 20.867354 -2.237318 0.000000 0.000000 -11.587680 2.551572 33.793007 -11.144734 0.000000 0.000000 3.525050 1.695473 -27.413918 3.642502 0.000000 0.000000 -16.867660 
-15.367209 8.985399 35.577008 -177.001557 -21.748766 -166.370714 6.139111 -0.351251 -28.967696 -3.535422 0.309227 10.723058 0.000000 0.000000 0.000000 11.716197 2.979065 -9.535245 -14.428001 -12.151939 -75.601114 -28.246000 -4.697710 14.693600 -46.050400 -19.880301 -178.591995 0.000000 32.450199 0.000000 10.989400 10.147200 -137.826996 33.528900 -1.374210 10.474900 40.124802 18.643299 22.148987 0.000000 22.674400 0.000000 -1.271780 -1.980210 12.292900 3.573822 -24.254826 -11.696005 0.000000 0.000000 5.208150 0.456482 20.937603 -2.207206 0.000000 0.000000 -11.585860 2.788266 33.045807 -10.794071 0.000000 0.000000 3.224520 1.299720 -27.505085 3.726844 0.000000 0.000000 -16.847790 
-15.363322 8.983052 35.587621 -176.924334 -21.006292 -166.202403 6.243230 0.331171 -28.724024 -3.992023 0.617287 10.617723 0.000000 0.000000 0.000000 12.775627 3.004869 -9.822253 -14.695350 -11.669978 -75.842746 -27.686701 -4.318290 14.381800 -48.142101 -19.308800 174.253006 0.000000 27.344000 0.000000 14.990600 10.197000 -132.408997 33.898602 -1.468190 10.368000 40.399601 17.457001 21.209015 0.000000 20.985001 0.000000 -0.388039 -2.097250 13.937800 3.503792 -23.463172 -11.793514 0.000000 0.000000 5.170240 0.422740 20.900137 -2.342078 0.000000 0.000000 -11.565310 2.374827 34.037719 -11.471642 0.000000 0.000000 3.677500 1.784778 -27.556483 3.424363 0.000000 0.000000 -16.860730 
-15.366231 9.001188 35.592502 -176.933101 -21.206598 -166.100083 7.172373 1.175897 -28.248283 -5.880450 0.047520 11.165904 0.000000 0.000000 0.000000 13.432653 2.778330 -12.443694 -14.713331 -10.718659 -76.127183 -37.357601 6.056910 15.755500 -22.628700 -30.836399 48.815002 0.000000 -29.808100 0.000000 21.045700 12.643900 3.582720 35.295101 -2.454060 9.789280 40.203400 17.278500 20.359009 0.000000 19.127899 0.000000 0.241789 -1.950960 15.793000 3.595999 -23.653591 -12.025167 0.000000 0.000000 5.238890 0.630736 20.922822 -1.756020 0.000000 0.000000 -11.680310 2.296429 33.886691 -11.630670 0.000000 0.000000 3.681730 1.380730 -27.673094 4.095776 0.000000 0.000000 -17.007530 
-15.373460 8.983561 35.578518 -176.908898 -21.321022 -165.923279 6.089576 -0.288232 -28.883899 -2.421893 0.452548 10.733938 0.000000 0.000000 0.000000 10.786126 3.043465 -10.251543 -12.819428 -12.295440 -76.550827 -31.132601 -3.556300 14.779800 -40.220501 -16.344000 22.766998 0.000000 -25.815100 0.000000 11.268700 8.253160 20.803699 33.049500 -1.777980 10.248100 41.006302 15.221000 19.170013 0.000000 17.389299 0.000000 0.624571 -2.560760 15.963000 3.660810 -23.736043 -12.091647 0.000000 0.000000 5.178430 0.545113 20.948936 -2.310500 0.000000 0.000000 -11.539540 2.298305 33.892053 -11.678546 0.000000 0.000000 3.643350 1.518209 -27.821147 3.503042 0.000000 0.000000 -16.949710 
